<?xml version="1.0" encoding="UTF-8" standalone="no"?>
<!-- Uploaded to: SVG Repo, www.svgrepo.com, Generator: SVG Repo Mixer Tools -->

<svg
   fill="#000000"
   width="800px"
   height="800px"
   viewBox="0 0 32 32"
   version="1.1"
   id="svg1"
   sodipodi:docname="palladium.svg"
   inkscape:version="1.4.1-rc (06eac75fbf, 2025-03-29)"
   xmlns:inkscape="http://www.inkscape.org/namespaces/inkscape"
   xmlns:sodipodi="http://sodipodi.sourceforge.net/DTD/sodipodi-0.dtd"
   xmlns="http://www.w3.org/2000/svg"
   xmlns:svg="http://www.w3.org/2000/svg"
   xmlns:rdf="http://www.w3.org/1999/02/22-rdf-syntax-ns#"
   xmlns:cc="http://creativecommons.org/ns#"
   xmlns:dc="http://purl.org/dc/elements/1.1/">
  <defs
     id="defs1" />
  <sodipodi:namedview
     id="namedview1"
     pagecolor="#ffffff"
     bordercolor="#000000"
     borderopacity="0.25"
     inkscape:showpageshadow="2"
     inkscape:pageopacity="0.0"
     inkscape:pagecheckerboard="0"
     inkscape:deskcolor="#d1d1d1"
     inkscape:zoom="1.0075"
     inkscape:cx="400"
     inkscape:cy="400"
     inkscape:window-width="1920"
     inkscape:window-height="1011"
     inkscape:window-x="0"
     inkscape:window-y="0"
     inkscape:window-maximized="1"
     inkscape:current-layer="svg1" />
  <title
     id="title1">gold-bar</title>
  <path
     d="M11.652 19.245l-0.001-0.001-0.005-0.003zM30.671 16.098l-2.207-5.839-8.022-4.361-16.624 8.861-2.431 6.495 9.8 5.214 0.161-7.067-7.624-4.353 0.654 0.346-0.373-0.215 1.332 0.708-1.212-0.708 7.526 4.065 16.205-8.376-2.594 1.424 3.037-1.551-6.011 3.183-10.434 5.727-0.668 6.816 19.484-10.371zM11.976 17.206l-4.389-2.342 4.269 1.32 13.070-5.8-12.95 6.822z"
     id="path1"
     style="fill:#e7e1c5;fill-opacity:1" />
  <metadata
     id="metadata1">
    <rdf:RDF>
      <cc:Work
         rdf:about="">
        <dc:title>gold-bar</dc:title>
      </cc:Work>
    </rdf:RDF>
  </metadata>
  <path
     style="fill:#1a1a1a;stroke-width:0.04;fill-opacity:0.30979773"
     d="m 1.4292804,21.081886 c 0,0 2.3027295,-5.836228 2.2630273,-5.875931 -0.039702,-0.0397 -0.039702,-0.0397 -0.039702,-0.0397 l 7.4243173,4.287841 v 0 l -0.0794,6.590571"
     id="path2" />
  <path
     style="fill:#f9f9f9;fill-opacity:0.309798;stroke-width:0.04"
     d="m 11.990074,19.692308 16.51613,-8.734492 1.985111,5.081886 -19.215881,10.163772 z"
     id="path3" />
</svg>
